<?xml version="1.0" encoding="utf-8"?>
<!-- Generator: Adobe Illustrator 26.5.0, SVG Export Plug-In . SVG Version: 6.00 Build 0)  -->
<svg version="1.1" id="Layer_1" xmlns="http://www.w3.org/2000/svg" xmlns:xlink="http://www.w3.org/1999/xlink" x="0px" y="0px"
	 viewBox="0 0 1000 1000" style="enable-background:new 0 0 1000 1000;" xml:space="preserve">
<style type="text/css">
	.st0{fill:#6D6E71;}
	.st1{fill:#F37121;}
</style>
<polygon class="st0" points="619,439.4 619,727.3 580.6,727.3 580.6,545 500,645.4 425,552 427.4,727.3 386.7,727.3 386.9,447 
	500,587.7 580.6,487.3 "/>
<polygon class="st1" points="619,439.4 619,727.3 580.6,727.3 580.6,487.3 "/>
<path class="st1" d="M743.9,201.4L500,505.2L256.1,201.4v694.3h487.9L743.9,201.4z M282.8,868.9V277.5L500,548l217.2-270.5
	l0.1,591.4L282.8,868.9L282.8,868.9z"/>
<path class="st1" d="M796.8,948.8H203.1V51.2L500,420.6L796.8,51.2V948.8z M229.4,922.5h541.3V125.7L500,462.5L229.4,125.7V922.5z"
	/>
<rect x="187.1" y="819.3" class="st1" width="625.8" height="26.7"/>
<g>
	<g>
		<path class="st1" d="M341,746.4v56.2h-9.2v-56.2H341z"/>
		<path class="st1" d="M395.2,746.4v56.2H388l-26.5-38.2v38.2h-9.2v-56.2h7.2l26.5,38.2v-38.2H395.2z"/>
		<path class="st1" d="M443,755.2h-15.8v47.4h-9.2v-47.4H402v-8.8h41V755.2z"/>
		<path class="st1" d="M484,793.8v8.8h-34.1v-56.2h33.8v8.8h-24.5v14.6h22.5v8.8h-22.5v15.2L484,793.8L484,793.8z"/>
		<path class="st1" d="M512.6,782.1h-10.9v20.5h-9.2v-56.2h22.5c10,0,18.1,8,18.1,18.1c0,7.2-4.6,13.7-11.2,16.3l12.8,21.9h-10.1
			L512.6,782.1z M501.6,773.8h13.3c4.9,0,8.8-4.2,8.8-9.4c0-5.3-3.9-9.4-8.8-9.4h-13.3L501.6,773.8L501.6,773.8z"/>
		<path class="st1" d="M550.9,746.4v56.2h-9.2v-56.2H550.9z"/>
		<path class="st1" d="M559.3,774.5c0-16.3,12.9-29.2,29.2-29.2c16.3,0,29.2,12.9,29.2,29.2s-12.9,29.2-29.2,29.2
			C572.3,803.7,559.3,790.8,559.3,774.5z M608.4,774.5c0-11.6-8.7-20.2-19.9-20.2s-19.9,8.6-19.9,20.2s8.7,20.2,19.9,20.2
			S608.4,786.1,608.4,774.5z"/>
		<path class="st1" d="M646.3,782.1h-10.9v20.5h-9.2v-56.2h22.5c10,0,18.1,8,18.1,18.1c0,7.2-4.6,13.7-11.2,16.3l12.8,21.9h-10.1
			L646.3,782.1z M635.3,773.8h13.3c4.9,0,8.8-4.2,8.8-9.4c0-5.3-3.9-9.4-8.8-9.4h-13.3V773.8z"/>
	</g>
</g>
</svg>
